<?xml version="1.0" encoding="UTF-8"?>
<svg id="uuid-c1500e15-7c5c-4fac-96a3-cbb87eaf4e62" data-name="レイヤー 2" xmlns="http://www.w3.org/2000/svg" width="194.14" height="50" viewBox="0 0 194.14 50">
  <g id="uuid-a0ec1a7e-f53b-4480-8586-0383f4d31c66" data-name="レイヤー 1">
    <path d="m26.09,50c-.17,0-.33-.05-.48-.15-.22.08-.44.06-.64-.06-.54.36-1.51.02-2.07-.15-.52,0-1.12.34-1.53-.1-.32.13-.6-.02-.83-.25-.58.47-1.23-.14-1.79-.35-1.33-.09-2.33-.79-3.6-1.13-.44,0-.68-.28-.83-.46-.86-.37-1.82-.41-2.45-1.22-.44.1-.76-.2-.96-.58-.64-.06-1.21-.59-1.51-1.14-.43.04-1.17-.67-1.43-1.19-.42,0-.78-.36-.81-.79-.65-.15-.92-.75-1.07-1.33-.77-.43-1.01-1.15-1.53-1.79-.53-.86-1.42-1.43-1.47-2.54-.84-.48-.82-1.54-1.15-2.33-.27-.28-.39-.68-.42-1.05-.29-.3-.45-.77-.33-1.17.01-.21-.42-.47-.22-.9h0c-.12-.16-.24-.43-.13-.64-.13-.25-.32-.42-.26-.86-.2-.73-.53-1.43-.33-2.28-.3-.33-.08-.63-.11-.99-.14-.55-.19-1.1,0-1.68-.27-.61-.05-1.83.22-2.56-.04-1.1.07-2.43.57-3.37-.1-.25-.1-.55.16-.78,0-.07.02-.13.05-.19-.14-.25-.08-.59.15-.76,0-.15.04-.36.23-.53.08-.73.5-1.39.93-2.02.14-1.12.61-2.1,1.42-2.93.77-1.58,2.02-3.19,3.35-4.49-.05-.46.7-.73.9-1.06.13-.51.67-.46,1.01-.68.57-.47.88-1.31,1.71-1.42.46-.29.79-.7,1.29-.8.54-.5,1.39-.94,2.13-.99.29-.32.89-.42,1.35-.57.61-.49,1.41-.61,2.09-.63.21-.19.54-.37.87-.19.33-.12.63-.25,1.03-.29.81-.52,1.61-.29,2.48-.32.73-.61,2.03-.03,2.94-.19.75-.15,1.29-.05,2.05.09.51.06.95-.11,1.39.26,1.66.81-.34,2.59-1.47,2.72-.26.58-1.21.71-1.55,1.12-.1.23-.34.36-.58.33-.23.65-1.12.97-1.58,1.44-.46.55-.79,1.29-1.6,1.45-.17.53-.51,1.14-.91,1.23-.24.82-.81,1.25-1.27,1.98-.16.77-.53,1.26-.94,1.84-.15.37-.02.77-.45,1.18,0,.23-.08.5-.38.74,0,.2,0,.49-.22.73,0,.44.08,1.13-.27,1.39.06.25.05.59-.22.95.08.51.05.79-.17,1.29.27.26,0,.82-.02,1.09.16.28.09.61-.15.82,0,.58.21.99.21,1.55.16.24.15.58-.04.81-.04.87.36,1.63.39,2.36.38.4-.03.74.1,1.25.77.69.77,1.7.98,2.67.22.29.53.46.36.98.27.37.89.9.72,1.37.73.6,1.17,1.64,1.66,2.42.3.15.6.24.68.77.68.42.93.78,1.36,1.45,1.17.78,2.22,1.66,3.34,2.5.86.25,1.71,1.03,2.7,1.25,1.26.33,2.44.79,3.7,1.2.36-.17.64.08.97.14.31-.18.45-.18.76.03.54-.1,1.12.08,1.65.09.48-.35.71.12,1.16.23.33.1.65-.13.99-.15.31,0,.53.24.87.13.32-.22.78-.55,1.15-.19,1.94-.89,3.13,1.96.95,2.48-.29.36-.52.82-1.01.91-.07.33-.31.55-.65.58-.28.31-.63.75-1.06.57-.13.51-.57.69-1.06.68-.33.69-1.4.77-2.01,1.04-1.13.32-2.35.94-3.57,1.1-.24.42-.54.38-.87.26-.26.27-.47.27-.71.25-.24.28-.66.27-.9-.02-.6.24-1.36.29-2.04.2-.24.26-.56.34-.87.18-.14.1-.33.18-.51.16Z" fill="#ffc636"/>
    <g>
      <path d="m50.78,12.19h2.38v17.36h7.7v2.24h-10.08V12.19Z"/>
      <path d="m65.48,26.75c0,2.15.91,3.22,2.74,3.22.97,0,1.76-.3,2.37-.91.61-.61.91-1.38.91-2.31v-7.84h2.24v12.88h-2.24v-2.04c-.86,1.55-2.14,2.32-3.84,2.32-1.36,0-2.44-.43-3.23-1.3-.79-.87-1.19-2.11-1.19-3.74v-8.12h2.24v7.84Z"/>
      <path d="m86.2,23.95c0-2.15-.91-3.22-2.74-3.22-.97,0-1.76.3-2.37.91-.61.61-.91,1.38-.91,2.31v7.84h-2.24v-12.88h2.24v2.04c.86-1.55,2.14-2.32,3.84-2.32,1.36,0,2.44.43,3.23,1.3.79.87,1.19,2.11,1.19,3.74v8.12h-2.24v-7.84Z"/>
      <path d="m93.65,21.93l-1.09-1.71c1.46-1.06,3.1-1.6,4.93-1.6,1.49,0,2.69.35,3.6,1.04s1.36,1.65,1.36,2.88v9.24h-2.24v-1.85c-.39.67-.98,1.2-1.75,1.57-.78.37-1.66.56-2.65.56-1.34,0-2.42-.34-3.22-1.02s-1.2-1.6-1.2-2.76c0-1.44.51-2.55,1.53-3.33,1.02-.78,2.34-1.18,3.96-1.18,1.29,0,2.4.31,3.33.92v-2.16c0-.62-.27-1.1-.8-1.44-.53-.34-1.17-.52-1.92-.52-1.33,0-2.6.45-3.84,1.34Zm0,6.08c0,1.38.91,2.07,2.72,2.07,2.56,0,3.84-1.11,3.84-3.33v-.5c-.97-.5-2.04-.76-3.22-.76-2.22,0-3.33.84-3.33,2.52Z"/>
      <path d="m117.14,23.95v7.84h-2.38V12.19h5.32c1.92,0,3.51.54,4.77,1.61s1.89,2.5,1.89,4.27-.63,3.2-1.89,4.27-2.85,1.61-4.77,1.61h-2.94Zm0-2.24h2.94c1.31,0,2.35-.31,3.12-.94.77-.62,1.16-1.53,1.16-2.7s-.39-2.08-1.16-2.7c-.77-.63-1.82-.94-3.12-.94h-2.94v7.28Z"/>
      <path d="m136.1,21.37c-.6-.43-1.18-.64-1.74-.64-1.44,0-2.16,1.07-2.16,3.22v7.84h-2.24v-12.88h2.24v1.48c.78-1.18,1.69-1.76,2.72-1.76s1.83.3,2.41.9l-1.23,1.85Z"/>
      <path d="m140.35,30.17c-1.27-1.27-1.9-2.88-1.9-4.82s.63-3.55,1.9-4.82,2.86-1.9,4.76-1.9,3.49.63,4.76,1.9c1.27,1.27,1.9,2.87,1.9,4.82s-.63,3.55-1.9,4.82c-1.27,1.27-2.86,1.9-4.76,1.9s-3.49-.63-4.76-1.9Zm1.61-8.13c-.83.87-1.25,1.97-1.25,3.32s.42,2.45,1.25,3.32c.83.87,1.88,1.3,3.15,1.3s2.32-.43,3.15-1.3c.83-.87,1.25-1.97,1.25-3.32s-.42-2.45-1.25-3.32c-.83-.87-1.88-1.3-3.15-1.3s-2.32.43-3.15,1.3Z"/>
      <path d="m152.28,34.98c.3.49.76.73,1.37.73.9,0,1.34-.84,1.34-2.52v-14.28h2.24v14.56c0,2.99-1.24,4.48-3.72,4.48-1.08,0-1.9-.37-2.46-1.12l1.23-1.85Zm2.76-20.31c-.31-.31-.46-.67-.46-1.08s.15-.77.46-1.08c.31-.31.67-.46,1.08-.46s.77.15,1.08.46c.31.31.46.67.46,1.08s-.15.77-.46,1.08c-.31.31-.67.46-1.08.46s-.77-.15-1.08-.46Z"/>
      <path d="m160.74,25.35c0-2,.6-3.62,1.79-4.86,1.19-1.24,2.72-1.86,4.59-1.86s3.3.6,4.41,1.79c1.11,1.19,1.67,2.8,1.67,4.82,0,.3,0,.52-.03.67h-10.14c.09,1.29.5,2.29,1.23,3,.73.71,1.68,1.06,2.86,1.06,1.74,0,3.08-.77,4.03-2.32l1.82,1.15c-.71,1.1-1.52,1.92-2.44,2.46-.92.54-2.15.81-3.7.81-1.75,0-3.21-.63-4.37-1.9s-1.74-2.88-1.74-4.82Zm10.02-1.34c-.11-1.04-.48-1.88-1.09-2.49s-1.47-.92-2.55-.92-1.97.31-2.73.94c-.76.63-1.19,1.45-1.3,2.48h7.67Z"/>
      <path d="m178.53,22.03c-.83.87-1.25,1.97-1.25,3.32s.42,2.45,1.25,3.32c.83.87,1.88,1.3,3.15,1.3,1.01,0,1.93-.23,2.77-.69.84-.46,1.41-1.01,1.71-1.67v2.8c-.43.52-1.06.93-1.88,1.22-.82.29-1.69.43-2.6.43-1.9,0-3.49-.63-4.76-1.9s-1.9-2.88-1.9-4.82.63-3.55,1.9-4.82,2.86-1.9,4.76-1.9c.9,0,1.75.15,2.58.45s1.46.7,1.9,1.2v2.8c-.3-.65-.87-1.21-1.71-1.67-.84-.46-1.76-.69-2.77-.69-1.27,0-2.32.43-3.15,1.3Z"/>
      <path d="m189.8,14.43h2.24v4.48h2.1v2.1h-2.1v10.78h-2.24v-10.78h-2.1v-2.1h2.1v-4.48Z"/>
    </g>
  </g>
</svg>