<?xml version="1.0" encoding="UTF-8"?>
<svg id="uuid-d9dfc386-fe8a-4b1b-8750-0a762e769733" data-name="レイヤー 2" xmlns="http://www.w3.org/2000/svg" width="753.08" height="256" xmlns:xlink="http://www.w3.org/1999/xlink" viewBox="0 0 753.08 256">
  <defs>
    <filter id="uuid-32beb6c5-1838-452e-9d6b-da3f092dbeb7" data-name="drop-shadow-1" filterUnits="userSpaceOnUse">
      <feOffset dx="7" dy="7"/>
      <feGaussianBlur result="uuid-ff2933e2-a9fe-4f15-8b64-59e1b2f60e0e" stdDeviation="5"/>
      <feFlood flood-color="#e6e6e6" flood-opacity=".75"/>
      <feComposite in2="uuid-ff2933e2-a9fe-4f15-8b64-59e1b2f60e0e" operator="in"/>
      <feComposite in="SourceGraphic"/>
    </filter>
  </defs>
  <g id="uuid-eae0d1d0-6ac0-4344-93a0-265bb99277c8" data-name="レイヤー 1">
    <g id="uuid-800fbcbf-fbf8-47f1-919d-d45510765514" data-name="Luna Project Black">
      <g id="uuid-9a39fb51-f8bc-43cb-b76f-6aea040f31df" data-name="Logo">
        <path d="m222.69,83.22h8.06v60.96h30.14v7.78h-38.21v-68.74Z" stroke-width="0"/>
        <path d="m274.2,148.3c-3.1-3.46-4.66-8.29-4.66-14.5v-30.82h8.16v29.57c0,4.67,1.06,8.1,3.17,10.27,2.11,2.18,4.96,3.26,8.54,3.26,2.75,0,5.2-.73,7.34-2.21,2.14-1.47,3.81-3.39,4.99-5.76,1.18-2.37,1.78-4.86,1.78-7.49v-27.65h8.16v48.96h-7.78v-7.1h-.38c-1.34,2.43-3.49,4.48-6.43,6.14-2.94,1.66-6.08,2.5-9.41,2.5-5.89,0-10.38-1.73-13.49-5.18Z" stroke-width="0"/>
        <path d="m323.78,102.99h7.78v7.2h.38c1.34-2.43,3.49-4.5,6.43-6.19,2.94-1.7,6.08-2.54,9.41-2.54,5.89,0,10.38,1.71,13.49,5.14,3.1,3.42,4.66,8.08,4.66,13.97v31.39h-8.16v-30.14c0-4.54-1.09-7.84-3.26-9.89-2.18-2.05-5.15-3.07-8.93-3.07-2.62,0-4.98.74-7.06,2.21-2.08,1.47-3.7,3.41-4.85,5.81-1.15,2.4-1.73,4.91-1.73,7.54v27.55h-8.16v-48.96Z" stroke-width="0"/>
        <path d="m383.68,151.38c-2.82-1.41-4.99-3.34-6.53-5.81-1.54-2.46-2.3-5.26-2.3-8.4,0-5.18,1.95-9.23,5.86-12.14,3.9-2.91,8.83-4.37,14.78-4.37,2.94,0,5.68.32,8.21.96,2.53.64,4.46,1.38,5.81,2.21v-2.98c0-3.65-1.28-6.58-3.84-8.78-2.56-2.21-5.79-3.31-9.7-3.31-2.75,0-5.28.59-7.58,1.78-2.3,1.18-4.13,2.83-5.47,4.94l-6.14-4.61c1.92-2.94,4.56-5.25,7.92-6.91,3.36-1.66,7.09-2.5,11.18-2.5,6.66,0,11.89,1.74,15.7,5.23,3.81,3.49,5.71,8.24,5.71,14.26v31.01h-7.78v-7.01h-.38c-1.41,2.37-3.52,4.38-6.34,6.05-2.82,1.66-5.99,2.5-9.5,2.5s-6.78-.71-9.6-2.11Zm18.05-7.2c2.37-1.41,4.26-3.29,5.66-5.66,1.41-2.37,2.11-4.96,2.11-7.78-1.54-1.02-3.42-1.86-5.66-2.5-2.24-.64-4.61-.96-7.1-.96-4.48,0-7.86.93-10.13,2.78-2.27,1.86-3.41,4.26-3.41,7.2,0,2.69,1.02,4.86,3.07,6.53,2.05,1.67,4.64,2.5,7.78,2.5,2.75,0,5.31-.7,7.68-2.11Z" stroke-width="0"/>
        <path d="m452.51,83.22h23.14c3.84,0,7.39.86,10.66,2.59,3.26,1.73,5.87,4.14,7.82,7.25,1.95,3.11,2.93,6.61,2.93,10.51s-.98,7.41-2.93,10.51c-1.95,3.1-4.56,5.52-7.82,7.25-3.26,1.73-6.82,2.59-10.66,2.59h-15.07v28.03h-8.06v-68.74Zm23.33,32.93c2.56,0,4.82-.61,6.77-1.82,1.95-1.22,3.47-2.78,4.56-4.7,1.09-1.92,1.63-3.94,1.63-6.05s-.54-4.13-1.63-6.05c-1.09-1.92-2.61-3.49-4.56-4.7-1.95-1.21-4.21-1.82-6.77-1.82h-15.26v25.15h15.26Z" stroke-width="0"/>
        <path d="m506.18,102.99h7.78v7.87h.38c.96-2.69,2.82-4.91,5.57-6.67,2.75-1.76,5.63-2.64,8.64-2.64,2.24,0,4.16.32,5.76.96v8.83c-2.05-1.02-4.35-1.54-6.91-1.54-2.37,0-4.54.67-6.53,2.02-1.98,1.34-3.57,3.15-4.75,5.42-1.19,2.27-1.78,4.72-1.78,7.34v27.36h-8.16v-48.96Z" stroke-width="0"/>
        <path d="m551.78,150.03c-3.84-2.3-6.83-5.44-8.98-9.41-2.14-3.97-3.22-8.35-3.22-13.15s1.07-9.18,3.22-13.15c2.14-3.97,5.14-7.1,8.98-9.41,3.84-2.3,8.16-3.46,12.96-3.46s9.12,1.15,12.96,3.46c3.84,2.3,6.83,5.44,8.98,9.41,2.14,3.97,3.22,8.35,3.22,13.15s-1.07,9.18-3.22,13.15c-2.14,3.97-5.14,7.1-8.98,9.41-3.84,2.3-8.16,3.46-12.96,3.46s-9.12-1.15-12.96-3.46Zm21.36-6.19c2.59-1.5,4.67-3.66,6.24-6.48,1.57-2.82,2.35-6.11,2.35-9.89s-.78-7.07-2.35-9.89c-1.57-2.82-3.65-4.98-6.24-6.48-2.59-1.5-5.39-2.26-8.4-2.26s-5.83.75-8.45,2.26c-2.62,1.5-4.72,3.67-6.29,6.48-1.57,2.82-2.35,6.11-2.35,9.89s.78,7.07,2.35,9.89c1.57,2.82,3.66,4.98,6.29,6.48,2.62,1.5,5.44,2.26,8.45,2.26s5.81-.75,8.4-2.26Z" stroke-width="0"/>
        <path d="m590.46,172.98v-7.78c.51.32,1.15.58,1.92.77.77.19,1.47.29,2.11.29,1.98,0,3.42-.62,4.32-1.87.9-1.25,1.34-3.09,1.34-5.52v-55.87h8.06v55.87c0,4.93-1.18,8.62-3.55,11.09-2.37,2.46-5.66,3.7-9.89,3.7-1.54,0-2.98-.22-4.32-.67Zm9.6-80.74c-1.15-1.15-1.73-2.53-1.73-4.13s.58-2.96,1.73-4.08c1.15-1.12,2.53-1.68,4.13-1.68s2.98.56,4.13,1.68c1.15,1.12,1.73,2.48,1.73,4.08s-.56,2.98-1.68,4.13c-1.12,1.15-2.51,1.73-4.18,1.73s-2.98-.58-4.13-1.73Z" stroke-width="0"/>
        <path d="m630.3,150.13c-3.71-2.24-6.61-5.33-8.69-9.26-2.08-3.94-3.12-8.37-3.12-13.3s.97-9.09,2.93-13.06c1.95-3.97,4.72-7.14,8.3-9.5,3.58-2.37,7.74-3.55,12.48-3.55s8.96,1.07,12.48,3.22c3.52,2.15,6.22,5.1,8.11,8.88,1.89,3.78,2.83,8.1,2.83,12.96,0,.96-.1,1.79-.29,2.5h-38.69c.19,3.71,1.09,6.85,2.69,9.41,1.6,2.56,3.63,4.48,6.1,5.76,2.46,1.28,5.04,1.92,7.73,1.92,6.27,0,11.1-2.94,14.5-8.83l6.91,3.36c-2.11,3.97-4.98,7.1-8.59,9.41-3.62,2.3-7.98,3.46-13.1,3.46-4.67,0-8.87-1.12-12.58-3.36Zm26.69-27.84c-.13-2.05-.71-4.09-1.73-6.14-1.02-2.05-2.64-3.78-4.85-5.18-2.21-1.41-4.98-2.11-8.3-2.11-3.84,0-7.09,1.23-9.74,3.7-2.66,2.46-4.4,5.71-5.23,9.74h29.86Z" stroke-width="0"/>
        <path d="m684.54,150.08c-3.78-2.27-6.72-5.38-8.83-9.31-2.11-3.94-3.17-8.37-3.17-13.3s1.06-9.38,3.17-13.34c2.11-3.97,5.05-7.07,8.83-9.31,3.78-2.24,8.03-3.36,12.77-3.36,5.31,0,9.78,1.23,13.39,3.7,3.62,2.46,6.19,5.74,7.73,9.84l-7.39,3.07c-1.22-3.01-3.02-5.29-5.42-6.86-2.4-1.57-5.3-2.35-8.69-2.35-2.88,0-5.57.79-8.06,2.35-2.5,1.57-4.5,3.76-6,6.58-1.5,2.82-2.26,6.05-2.26,9.7s.75,6.88,2.26,9.7c1.5,2.82,3.5,5.01,6,6.58,2.5,1.57,5.18,2.35,8.06,2.35,3.46,0,6.43-.8,8.93-2.4,2.5-1.6,4.35-3.87,5.57-6.82l7.3,3.07c-1.67,4.03-4.34,7.3-8.02,9.79-3.68,2.5-8.15,3.74-13.39,3.74-4.74,0-8.99-1.14-12.77-3.41Z" stroke-width="0"/>
        <path d="m740.84,151.76c-1.7-.64-3.12-1.5-4.27-2.59-1.28-1.21-2.24-2.62-2.88-4.22-.64-1.6-.96-3.55-.96-5.86v-28.7h-8.54v-7.39h8.54v-13.82h8.16v13.82h11.9v7.39h-11.9v26.69c0,2.69.51,4.67,1.54,5.95,1.21,1.41,2.98,2.11,5.28,2.11,1.86,0,3.65-.54,5.38-1.63v7.97c-.96.45-1.94.77-2.93.96-.99.19-2.26.29-3.79.29-1.98,0-3.83-.32-5.52-.96Z" stroke-width="0"/>
      </g>
      <g id="uuid-769e9761-9011-41af-893e-f800916be83f" data-name="Icon">
        <g id="uuid-4d7c66de-0b64-43bc-9742-7e02674c48e7" data-name="Logo" filter="url(#uuid-32beb6c5-1838-452e-9d6b-da3f092dbeb7)">
          <g>
            <path d="m148.04,233c-.72,0-1.44-.2-2.06-.57-.34.09-.68.14-1.02.14-.53,0-1.04-.11-1.52-.33-.62.46-1.37.7-2.14.7-.66,0-1.32-.18-1.92-.52-.28-.16-.61-.23-1.1-.23-.33,0-.67.03-1,.06-.13.01-.25.02-.37.02-.97,0-1.71-.35-2.25-.69-.32.1-.66.15-1,.15-.04,0-.53-.02-.53-.02-.24-.01-.47-.03-.71-.03-.4,0-.54.05-.62.09-.43.23-.9.35-1.38.35-.54,0-1.36-.16-2.16-.91-.01-.01-.02-.02-.03-.03-.33.1-.64.13-.88.13-.56,0-1.4-.15-2.25-.88-.08-.07-.17-.14-.25-.21-.78.49-1.53.63-2.11.63-1.02,0-2.03-.4-2.98-1.2-.11-.09-.28-.23-.4-.32-.08,0-.15.01-.23.01-.7,0-1.38-.25-1.92-.71h-.17c-1,0-1.86-.2-2.62-.39-.39-.09-.75-.18-1.07-.22-.79-.11-1.34-.48-1.62-.7l-.25-.1c-1.61-.65-3.22-1.3-4.84-1.93-.09,0-.17,0-.26,0-.87,0-1.61-.25-2.21-.75-.18-.15-.61-.26-1.07-.38l-.4-.11c-.16-.04-.31-.1-.43-.15-1.87-.05-2.98-1.2-3.62-1.95-.9-.19-1.56-.65-1.99-.96l-.2-.14c-.1-.05-.52-.09-.79-.11-.6-.05-1.34-.11-2.15-.41-1.95-.74-3.59-1.85-5.02-3.39-.16.02-.32.03-.48.03-1.5,0-2.76-.81-3.46-2.23l-.03-.03c-.05-.06-.1-.14-.17-.24-.92-.09-1.8-.39-2.61-.91-.49-.31-1.05-.69-1.52-1.36-.12-.17-.23-.33-.3-.41-.89-.38-1.6-1.14-1.97-2.14-2.01-.41-3.46-1.35-4.29-2.8-.18-.31-.35-.6-.44-.68-.48-.37-.87-.85-1.18-1.42-1.73-.16-3.19-1.58-3.52-3.35-.52-.11-1.03-.37-1.5-.78-1.54-1.31-2.55-2.97-2.98-4.95-.26-.18-.51-.36-.77-.54-.3-.21-.59-.42-.89-.62-1.28-.85-1.75-1.89-1.91-2.6-.06-.26-.39-.62-.78-1.04-.28-.31-.6-.65-.91-1.06-.42-.56-.76-1.12-1.09-1.66-.59-.96-1.1-1.78-1.8-2.22-.54-.34-.93-.88-1.09-1.51-.1-.4-.49-.88-.95-1.42-.59-.7-1.31-1.58-1.75-2.75-.04-.1-.08-.2-.12-.29-.23-.54-.55-1.33-.53-2.3-.6-.26-1.11-.73-1.53-1.41-1.01-1.3-1.39-2.72-1.69-3.87-.16-.61-.32-1.19-.53-1.63-.47-.95-.8-1.94-.98-2.95-.95-1.1-1.54-2.44-1.71-3.91-.02-.21-.04-.37-.06-.5-.08-.11-.18-.23-.32-.4-1.12-1.39-1.53-3.21-1.09-4.86-.03-.09-.29-.46-.44-.68-.69-.98-.87-1.96-.55-2.91-.02-.02-.04-.05-.06-.08-.56-.72-.75-1.7-.5-2.58-.06-.12-.15-.27-.23-.4l-.13-.21c-.25-.42-.89-1.54-.72-2.94-.46-1.04-.71-2.17-.74-3.43-.5-.66-1.03-1.73-.83-3.21.02-.15.01-.4,0-.67-.02-.57-.05-1.34.17-2.18-.76-1.14-.88-2.53-.29-3.78-.02-.06-.04-.14-.09-.27-.34-.86-.49-1.74-.48-2.77,0-.53,0-1.07,0-1.6v-.78c0-.38-.01-1.24.4-2.13,0,0,0,0,0,0-.48-1.75-.99-4.41.12-7.3.24-.63.36-1.21.36-1.73-.07-.85.21-1.46.5-1.84,0-.15-.04-.39-.07-.57-.09-.61-.21-1.43-.03-2.35.08-.39.12-.84.17-1.32.02-.25.05-.5.08-.74-.22-1.61.32-2.95.74-3.95.1-.25.2-.49.29-.74.04-.12.03-.48.03-.76v-.26c-.02-1.32.34-2.42,1.08-3.29-.43-1.28-.13-2.5.79-3.38.03-.17.07-.34.12-.51-.29-.64-.36-1.35-.19-2.02.15-.57.46-1.06.89-1.44.06-.65.26-1.51.98-2.21.01-.1.02-.22.03-.32.17-1.73.84-3.3,2.04-4.86,0,0,0,0,0,0,.1-.42.25-1.12.8-1.81.09-.12.17-.25.26-.38.22-.34.49-.77.88-1.18.04-.04.05-.08.03-.18-.23-1.18,0-2.3.7-3.42.41-.66.7-1.55.97-2.41.31-.97.81-2.21,1.95-3.24.06-.06.24-.21.32-.31.22-1.07.9-1.99,2.04-2.74.56-.37.56-.61.55-.88-.03-1.02.29-2.49,2.02-3.67.33-.22.61-.46.86-.72.14-.14.17-.2.18-.21.17-2.77,2.36-4.26,3.08-4.75.28-.19.56-.63.89-1.14.28-.44.6-.94,1.02-1.42.34-.39.64-.81.95-1.23.74-1.01,1.57-2.15,2.79-3.07.06-.05.14-.12.29-.32.33-.45.72-.85,1.15-1.19.12-.95.68-1.97,2.06-2.91l.61-.43c.69-.49.98-.71,1.09-1,.64-1.68,2.15-2.69,4.04-2.7-.02,0,.1-.08.25-.27.78-.96,1.58-1.88,2.76-2.59h0s.04-.07.11-.22c.84-1.85,2.48-3.03,4.6-3.33.26-.04.36-.07.39-.08,0,0,.02-.03.05-.07,1.19-1.69,2.92-2.4,4.31-2.97l.34-.14c.38-.65,1.01-1.19,1.71-1.45,1.19-.44,2.31-.97,3.32-1.59.75-.45,1.52-.79,2.36-1.03.34-.1.78-.24,1.31-.24.12,0,.25,0,.37.02.41-.42,1.07-.98,2.06-1.13.35-.05.8-.24,1.27-.44.62-.26,1.36-.57,2.21-.73,1.05-1.21,2.48-1.49,3.32-1.66.17-.03.35-.07.52-.11.49-.13.95-.2,1.35-.26.51-.08,1-.15,1.2-.3.47-.34,1.06-.53,1.66-.53.3,0,.59.05.87.14.05-.04.09-.07.13-.1.52-.41,1.3-.94,2.36-.94.34,0,.77.06,1.25.26.18-.06.35-.13.53-.19,1.04-.38,2.2-.8,3.52-.95.11-.08.23-.17.36-.25,1.58-.95,3.18-1.01,4.46-1.06h.38c.42-.23.9-.35,1.37-.35.37,0,.73.07,1.07.2.32.12.71.17,1.3.17.29,0,.58-.01.87-.02.19,0,.38-.01.57-.02.73-.64,1.83-1.25,3.41-1.25.55,0,1.12.07,1.8.22.75.17,1.45.25,2.14.25.34,0,.68-.02,1.03-.06.33-.04.67-.05,1.01-.05.43,0,.86.03,1.3.06.33.02.65.04.98.04.08,0,.16,0,.23,0,.2,0,.4-.01.6-.01h.94c.56,0,.86-.03,1.07-.14.53-.26,1.11-.4,1.74-.4s1.3.14,1.94.4c.84.35,1.78.52,2.86.52h.52c.56,0,1.09.04,1.56.09.37.03.75.07,1.12.07.07,0,.33,0,.37,0,.57,0,1.43.15,2.32.87l.15.13c1.18.23,2.13,1.2,2.4,2.5,0,0,0,0,0,0,0,0,.02.03.03.07,1.13,2.5.71,4.02-1.56,5.62l-.15.1c-.97.69-1.89,1.33-2.58,2.09-1.11,1.21-2.54,1.9-4.17,2.02-.39.7-1.07,1.44-2.23,1.93-.85.74-1.79,1.15-2.58,1.5-.93.41-1.35.62-1.51.96-.48,1.02-1.46,1.67-2.57,1.68-.78,1.59-2.09,2.83-3.9,3.71-.56.58-1.17.98-1.68,1.31-.37.24-.78.51-.87.68-.35.68-.87,1.35-1.54,1.99-.18.17-.39.46-.6.76-.37.51-.83,1.15-1.48,1.69-.1.08-.19.17-.29.27-.52.5-1.42,1.36-2.77,1.58-.17.86-.63,1.63-1.39,2.29-.48,1.82-1.6,2.53-2.48,2.8-.32.8-.7,1.65-1.24,2.47-.25,1.62-1.18,2.29-1.95,2.58-.19.07-.46.51-.74.98l-.11.19c-.08.13-.15.26-.22.4-.21.39-.48.89-.89,1.38-.05,1.19-.65,2.11-.96,2.59-.07.11-.15.22-.21.33-.08.16-.16.31-.24.46-.04.07-.08.14-.11.21-.07,1.3-.92,2.06-1.24,2.36-.01.01-.02.02-.02.02s0,0,0,0c-.15.19-.32.45-.49.73-.21.34-.46.73-.76,1.11-.09.11-.11.2-.18.85-.02.21-.04.43-.07.66-.18,1.34-.72,2.5-1.53,3.34-.03.95-.4,2.07-1.59,3.12.01.84-.11,2.02-.9,3.01v.3c0,.88.01,1.75.03,2.63.03,1.39-.69,2.34-1.1,2.84.2,1.08.11,2.46-.92,3.93.23.84.11,1.59.04,2.05-.01.09-.03.17-.04.26-.02.77-.12,1.87-.68,2.96.58,1.07.59,2.42,0,3.74-.2.45-.22.6-.22.62.73,1.23.53,2.71-.5,3.79.2.84.13,1.62.08,2.21v.11c-.03.18-.02.47.21.94.45.91.63,1.86.54,2.9,0,.02,0,.04,0,.06.39.7.54,1.52.4,2.32-.08.48-.27.92-.53,1.31.14.76.12,1.43.09,2l-.02.72c-.01.54-.03,1.22.11,1.36.97.95.93,2.07.92,2.44,0,.31-.02.82.04.95.51.81.5,1.61.47,2.07.74.96.91,2.28.39,3.41-.17.38-.13.9-.02,1.67.91.68,1.52,1.63,1.8,2.84.05.21.13.47.24.57.98.9,1.46,2.31,1.25,3.66-.04.29.07.74.21,1.26.12.46.26.98.33,1.56.05.38.13.79.26,1.31.06.08.17.19.25.29.28.3.62.68.92,1.19.59.98.73,1.91.44,2.79.3.41.63.79.98,1.18.38.43.76.86,1.1,1.31.87,1.14,1.02,2.22.91,3.09.88.72,1.91,1.74,2.57,3.2,0,0,0,0,0,0,0,0,.08.12.36.36,1.12.99,1.78,2.3,1.9,3.77,0,0,0,.02,0,.02.91.63,1.59,1.52,1.97,2.57.29.12.67.3,1.06.56.48.33,1.64,1.13,1.84,2.72.77.48,1.39,1.05,1.95,1.56.44.39.85.77,1.24,1.02.56.36,1.29,1.08,1.54,2.47.03.15.08.44.72.88,1.27.88,6.54,4.57,6.54,4.57.82.57,1.4,1.23,1.92,1.82.12.14.24.27.37.41.49.53,1.3.96,2.15,1.41l.21.11c.97.51,1.83,1.17,2.64,2,.84.02,2.01.29,3.02,1.45.26.3.45.38.58.42.52.14,1.05.48,1.38.9.21.27.69.43,1.45.66.71.22,1.59.49,2.43,1.02.85.13,1.65.4,2.37.8,0,0,.02,0,.02,0,.38.03.95.06,1.56.37.13.06.37.13.62.21.56.16,1.32.38,2.06.88.12.08.28.17.4.17.14-.01.27-.02.4-.02,1.01,0,1.66.4,2.05.78.11.02.3.05.44.07.24.03.49.07.73.12.88.18,1.66.54,2.29.84l.35.16c.47.22,1.07.36,1.69.51.83.2,1.76.43,2.7.87.36-.13.74-.19,1.12-.19.81,0,1.41.28,1.77.45l.1.05c.16.07.43.14.71.22.07.02.14.04.21.06.62-.38,1.22-.46,1.59-.46.42,0,1.1.09,1.79.59.38-.08.78-.12,1.21-.12.53,0,1,.06,1.42.11.39.05.73.1,1.07.14.75.11,1.45.21,2.1.21,0,0,.15,0,.16,0,.26,0,.49.02.7.06.5-.29,1.07-.45,1.65-.45,1.04,0,2.01.5,2.67,1.36h0s.43.05.69.08l.38.05c.14.02.27.03.41.03.53,0,1.13-.14,1.83-.42.48-.19.97-.29,1.45-.29s.98.1,1.43.31c.35.16.77.25,1.34.35.05,0,.09.01.13.01.11,0,.29-.03.59-.12.21-.06.35-.12.76-.51.66-.62,1.5-.96,2.37-.96.69,0,1.34.21,1.9.58,1.06-.44,2.1-.52,3.02-.52.23,0,.46,0,.69,0,1.12.03,2.08.37,2.94,1.06.43.34.76.71,1.03,1.01.18.19.4.44.5.5,1.02.6,1.58,1.71,1.51,2.98-.11,2.08-.94,3.56-2.46,4.43-.47.7-1.36,1.85-3.07,2.02-.04.04-.08.09-.13.15-.19.22-.4.48-.5.68-.78,1.43-1.94,2.4-3.39,2.87-.39,1.37-1.47,2.31-2.91,2.5-.45.48-.9.96-1.35,1.45-.84.92-1.78,1.11-2.43,1.11-.18,0-.36-.01-.54-.04-.7,1.73-2.14,2.69-4.07,2.69-.02,0-.3,0-.3,0-.49,1.18-1.54,2.01-2.91,2.27-.46.08-.65.2-.75.27-.77.57-1.57.72-2,.79-.64.11-.99.23-1.19.4-.51.43-1.15.66-1.8.66h-.14c-.72,0-1.51.34-2.43.73-.54.23-1.13.49-1.77.7-.38.32-1,.76-1.91.84-.3.03-.73.2-1.2.39-.82.33-1.84.74-3.08.75-.67.35-1.31.48-1.76.56-.11.02-.22.04-.33.07-.73.34-1.44.47-2.08.54-.63,1.12-1.77,1.36-2.06,1.4-.17.03-.35.04-.52.04-.43,0-.85-.08-1.26-.23-.68.65-1.53,1-2.48,1-.13,0-.26,0-.4-.02-.56.55-1.28.85-2.04.85s-1.51-.31-2.1-.88c-.04.01-.08.03-.13.04-1.24.41-2.65.88-4.35.88-.11,0-.23,0-.35,0-.33-.01-.65-.02-.98-.02-.76-.01-1.54-.02-2.38-.12-.87.89-1.78,1.08-2.4,1.08-.45,0-.9-.1-1.34-.29-.66.41-1.38.62-2.13.62Z" fill="#fbc62d" stroke-width="0"/>
            <path d="m147.25,25.5c.32,0,.67.08.99.22,1.23.5,2.49.7,3.82.7.12,0,.23,0,.35,0,.06,0,.12,0,.17,0,.89,0,1.78.16,2.68.16.11,0,.22,0,.33,0,.01,0,.03,0,.04,0,.28,0,.54.14.75.31.36.29.66.62,1.19.63.22,0,.43.27.49.56.04.2.12.4.21.59.63,1.4.57,1.64-.72,2.55-1.1.78-2.21,1.55-3.13,2.55-.78.85-1.74,1.22-2.84,1.22-.06,0-.11,0-.17,0-.03,0-.05,0-.08,0-.68,0-1.07.32-1.28.93-.22.66-.7,1.01-1.31,1.24-.07.03-.18.02-.22.06-1.41,1.56-4.01,1.44-5.01,3.58-.08.18-.21.24-.35.24-.12,0-.26-.05-.4-.1-.18-.07-.35-.1-.51-.1-.46,0-.81.29-.98.82-.55,1.75-1.8,2.8-3.42,3.51-.02.01-.06,0-.07.02-.86,1.2-2.52,1.5-3.24,2.89-.26.5-.65.95-1.06,1.34-.74.71-1.19,1.7-1.94,2.32-.61.5-1.18,1.33-2.11,1.33-.18,0-.37-.03-.58-.1-.01,0-.03,0-.04,0-.35,0-1.21,1.13-1.17,1.64.05.7-.29,1.09-.78,1.47-.34.26-.48.66-.58,1.08-.16.61-.43,1.12-1.12,1.12-.07,0-.14,0-.22-.02-.04,0-.08,0-.11,0-.26,0-.43.14-.54.43-.45,1.15-.87,2.33-1.62,3.34-.27.37.02,1.1-.53,1.31-1.08.41-1.57,1.33-2.1,2.21-.43.7-.71,1.5-1.45,1.97-.09.06-.2.25-.17.33.48,1.09-.38,1.79-.77,2.61-.25.51-.59.96-.6,1.57,0,.43-.43.64-.67.93-.5.6-.84,1.33-1.3,1.91-.7.88-.63,1.74-.76,2.72-.1.74-.46,1.82-1.34,2.32-.29.16-.39.36-.31.63.34,1.05-.24,1.7-.99,2.24-.41.3-.56.64-.53,1.13.06.86.13,1.74-.76,2.3-.19.12-.12.33-.12.5.01,1.23,0,2.45.04,3.68.02.65-.44,1.05-.78,1.48-.34.44-.55.83-.37,1.41.34,1.07-.05,1.99-.76,2.8-.38.43-.46.85-.14,1.4.33.56.05,1.23.03,1.83-.02.77-.14,1.58-.64,2.28-.36.51-.58,1.07.06,1.69.47.45.37,1.19.11,1.77-.43.94-.67,1.86-.12,2.83.19.34.11.65-.17.92-.63.59-.91,1.25-.62,2.15.16.5.09,1.09.04,1.63-.07.81.13,1.57.47,2.27.26.52.34,1.03.29,1.58-.04.49-.09.94.25,1.4.28.39.26.99-.17,1.28-.58.38-.43.84-.28,1.29.25.76.15,1.51.13,2.28-.02,1.21-.14,2.52.86,3.5.21.2.18.42.17.65-.01.79-.02,1.57.42,2.27.13.21.11.46.09.69-.05.55-.07,1.06.42,1.48.25.21.35.61.2.95-.57,1.24-.31,2.49-.13,3.75.06.41.36.65.67.83.61.36.92.9,1.08,1.56.17.7.44,1.34.98,1.84.42.39.54.99.47,1.44-.19,1.25.38,2.34.52,3.51.07.59.2,1.17.35,1.75.22.83.99,1.28,1.41,1.99.2.35.37.55.13.95-.33.55-.21,1.04.16,1.63.69,1.09,1.63,1.95,2.4,2.96.39.51.56,1.01.33,1.62-.23.64-.11,1.07.5,1.52.96.7,1.84,1.53,2.35,2.67.21.46.59.86.98,1.2.65.57,1,1.28,1.06,2.11.06.76.26,1.36.96,1.8.62.39,1.06.98,1.24,1.72.24.98,1.24,1.02,1.9,1.48.48.33.84.62.78,1.3-.05.59.34,1.03.85,1.31,1.31.72,2.23,1.94,3.48,2.74.26.16.38.5.43.82.2,1.1.86,1.87,1.75,2.49,2.18,1.52,4.36,3.05,6.54,4.57.74.51,1.27,1.22,1.87,1.87.83.91,1.96,1.47,3.03,2.03.81.43,1.5.98,2.12,1.63.4.42.89.66,1.44.66.03,0,.06,0,.08,0,.03,0,.05,0,.08,0,.52,0,.89.22,1.22.59.49.57,1.07.98,1.8,1.19.03,0,.06.01.07.03,1.18,1.53,3.23,1.35,4.67,2.37.16.12.38.2.58.22.68.07,1.32.27,1.89.63.51.32,1.16.15,1.56.34.78.38,1.66.42,2.38.91.54.37,1.14.6,1.8.6.09,0,.18,0,.26-.01.04,0,.09,0,.14,0,.12,0,.26.02.32.08.66.72,1.55.66,2.4.84.72.15,1.44.53,2.1.83,1.49.68,3.15.71,4.58,1.48.28.15.59.25.88.25.19,0,.38-.04.54-.14.2-.12.37-.17.54-.17.29,0,.55.15.84.28.73.33,1.54.4,2.27.75.06.03.12.04.18.04.22,0,.4-.2.54-.39.19-.25.37-.37.56-.37.2,0,.4.14.58.38.22.3.44.44.71.44.14,0,.3-.04.49-.12.39-.17.81-.23,1.22-.23s.79.05,1.18.1c1.14.14,2.27.36,3.42.36.07,0,.14,0,.21,0,0,0,.01,0,.02,0,.22,0,.45.09.65.17.15.06.29.1.42.1.19,0,.35-.07.5-.26.22-.28.47-.4.7-.4.26,0,.5.14.67.37.71.94,1.74.96,2.71,1.1.26.04.51.06.77.06.95,0,1.87-.24,2.77-.61.17-.07.34-.11.51-.11.13,0,.27.03.4.08.62.28,1.26.42,1.93.54.2.04.39.05.58.05.41,0,.8-.08,1.25-.21.79-.21,1.28-.6,1.82-1.11.2-.19.43-.28.65-.28.31,0,.61.17.79.45.24.38.51.52.78.52.23,0,.47-.1.68-.25.84-.56,1.74-.66,2.66-.66.21,0,.42,0,.63,0,.55.01,1,.16,1.43.51.65.52,1.08,1.27,1.82,1.71.22.13.3.4.29.69-.06,1.07-.35,2-1.4,2.5-.25.12-.4.3-.55.53-.36.57-.68,1.09-1.53,1.09-.03,0-.06,0-.09,0-.01,0-.02,0-.03,0-.55,0-1.08.55-1.48,1.03-.28.34-.57.69-.78,1.08-.58,1.06-1.44,1.67-2.64,1.84-.58.08-.9.42-.9,1.05,0,.8-.38,1.2-1.1,1.2-.08,0-.17,0-.26-.02-.02,0-.05,0-.07,0-.27,0-.42.19-.58.36-.59.63-1.18,1.25-1.76,1.89-.18.2-.37.29-.59.29-.12,0-.25-.03-.39-.08-.3-.11-.58-.17-.83-.17-.75,0-1.29.49-1.51,1.4-.26,1.05-.84,1.5-1.87,1.5-.02,0-.05,0-.07,0-.08,0-.16,0-.23,0-.61,0-1.14.14-1.63.43-.3.18-.54.4-.59.77-.09.67-.55,1-1.14,1.11-.66.12-1.26.33-1.79.73-.29.21-.62.28-.95.34-.85.15-1.66.37-2.35.93-.06.05-.14.09-.21.09,0,0,0,0,0,0-.05,0-.09,0-.14,0-1.91,0-3.47,1.12-5.22,1.63-.46.14-.66.61-1.11.66-1.43.13-2.64,1.12-4.09,1.12-.12,0-.24,0-.37-.02-.02,0-.05,0-.07,0-.2,0-.36.1-.51.21-.64.44-1.47.37-2.07.65-.95.43-1.87.36-2.8.48-.27.04-.38.26-.38.52,0,.32.03.71-.36.77-.05,0-.1.01-.15.01-.3,0-.62-.13-.86-.35-.34-.3-.64-.46-.9-.46-.33,0-.61.25-.87.78-.25.5-.58.8-1.12.8-.06,0-.12,0-.18-.01-.14-.02-.28-.02-.41-.02-.57,0-1.08.16-1.5.66-.12.14-.24.2-.36.2-.15,0-.3-.1-.43-.26-.42-.52-.87-.7-1.37-.7-.38,0-.79.11-1.22.25-1.15.38-2.28.75-3.57.75-.08,0-.17,0-.25,0-1.2-.05-2.39.01-3.6-.19-.05,0-.09-.01-.14-.01-.51,0-1.1.4-1.48.8-.22.23-.41.34-.63.34-.12,0-.24-.03-.38-.1-.36-.17-.7-.26-1.03-.26-.4,0-.79.13-1.22.42-.25.17-.54.26-.84.26-.37,0-.74-.14-1.06-.41-.26-.23-.51-.33-.77-.33-.19,0-.38.05-.59.15-.23.11-.44.17-.66.17-.26,0-.53-.09-.8-.29-.18-.13-.44-.19-.71-.19-.49,0-1.03.19-1.31.47-.26.27-.55.38-.84.38-.23,0-.47-.07-.68-.19-.76-.43-1.54-.56-2.34-.56-.41,0-.82.03-1.24.07-.05,0-.09,0-.13,0-.52,0-.9-.29-1.28-.57-.28-.21-.54-.35-.82-.35-.19,0-.38.06-.59.21-.15.1-.37.17-.55.17-.01,0-.03,0-.04,0-.4-.02-.8-.05-1.19-.05-.62,0-1.22.07-1.81.39-.07.04-.13.05-.19.05-.16,0-.31-.1-.44-.23-.25-.23-.53-.44-.74-.69-.23-.28-.47-.42-.73-.42-.2,0-.4.09-.62.28-.19.17-.37.24-.55.24-.22,0-.43-.11-.63-.28-.5-.42-.99-.85-1.47-1.29-.17-.15-.32-.24-.47-.24-.17,0-.33.11-.49.34-.49.67-1,1.01-1.55,1.01-.43,0-.88-.21-1.38-.62-.56-.47-1.11-.92-1.85-.92-.1,0-.2,0-.3.02-.03,0-.05,0-.08,0-.12,0-.23-.05-.34-.16-.41-.41-.95-.56-1.48-.56-.03,0-.07,0-.1,0-.05,0-.11,0-.16,0-1.16,0-2.24-.44-3.36-.59-.35-.05-.52-.34-.8-.45-1.87-.75-3.74-1.51-5.61-2.24-.14-.05-.29-.07-.44-.07s-.3.01-.44.01c-.23,0-.44-.03-.63-.18-.71-.58-1.56-.74-2.39-.97-.23-.06-.47-.26-.68-.26-.01,0-.03,0-.04,0-.09.01-.18.02-.27.02-1.12,0-1.65-.91-2.31-1.62-.1-.1-.15-.28-.29-.28-.01,0-.03,0-.04,0-.1.02-.19.03-.28.03-.65,0-1.13-.44-1.62-.76-1.06-.71-2.32-.35-3.43-.78-1.61-.61-2.96-1.54-4.11-2.8-.42-.46-.95-.8-1.57-.8-.11,0-.22.01-.33.03-.14.03-.26.04-.38.04-.57,0-.95-.3-1.21-.83-.23-.47-.73-.81-.58-1.47.05-.21-.11-.26-.28-.26-.09,0-.17.01-.25.02-.25.04-.5.07-.74.07-.65,0-1.26-.17-1.86-.55-.32-.2-.6-.39-.82-.69-.36-.51-.69-1.02-1.34-1.26-.36-.14-.58-.51-.7-.9-.25-.87-.8-1.21-1.73-1.39-1.01-.19-2.09-.58-2.68-1.61-.3-.52-.58-1.02-1.08-1.41-.41-.32-.64-.81-.78-1.33-.15-.56-.33-.8-.68-.8-.16,0-.36.05-.6.14-.11.04-.21.06-.32.06-.69,0-1.42-.72-1.42-1.63,0-.82-.24-1.44-.85-1.98-.14-.12-.24-.22-.33-.22-.07,0-.15.06-.23.22-.12.22-.26.3-.4.3-.17,0-.34-.11-.5-.25-1.14-.97-1.87-2.2-2.17-3.66-.11-.53-.31-.97-.78-1.28-.65-.43-1.27-.91-1.92-1.34-.41-.27-.76-.63-.86-1.08-.3-1.32-1.39-2.05-2.13-3.04-1.14-1.53-1.84-3.41-3.56-4.49-.45-1.78-2.16-2.77-2.78-4.44-.23-.61-.57-1.19-.47-1.86.11-.8-.31-1.38-.66-2.01-.08-.13-.18-.2-.28-.2-.03,0-.06,0-.1.02-.12.05-.22.07-.3.07-.39,0-.5-.41-.73-.7-1.16-1.49-1.15-3.42-1.94-5.04-.44-.9-.73-1.83-.85-2.81-.03-.27-.23-.39-.39-.56-.69-.75-1.1-1.67-1.21-2.66-.14-1.2-.14-1.23-.91-2.19-.61-.76-.86-1.74-.62-2.65.3-1.15-.24-1.93-.81-2.75-.16-.23-.32-.45-.22-.71.36-.91.09-1.66-.47-2.38-.07-.09-.1-.27-.06-.37.39-.99-.14-1.74-.6-2.53-.32-.55-.57-1.12-.29-1.78.04-.1.03-.28-.03-.37-.57-.98-.8-2.02-.81-3.15,0-.46-.19-.94-.49-1.3-.34-.43-.43-.89-.36-1.39.14-1.03-.23-2.11.33-3.12.21-.37.06-.8-.29-1.13-.5-.47-.67-1.11-.36-1.71.4-.77.21-1.51-.06-2.19-.24-.61-.31-1.2-.3-1.83.01-.81,0-1.62-.01-2.43,0-.5.04-.99.4-1.39.42-.48.04-.95-.08-1.39-.52-1.92-.7-3.81.04-5.74.33-.86.55-1.79.52-2.74,0-.08-.03-.18.01-.23,1.03-1.22.09-2.62.35-3.92.15-.76.19-1.54.28-2.31,0-.08.07-.16.06-.22-.37-1.44.42-2.63.85-3.9.21-.61.16-1.23.15-1.85-.01-.81.19-1.5.91-2.02.69-.5.35-1.35.12-1.83-.33-.71-.04-.97.43-1.22.33-.17.38-.38.36-.69-.02-.32.03-.61.19-.9.24-.44.27-.87-.09-1.3-.27-.32-.29-.72.16-.89.56-.22.63-.64.61-1.13,0-.4-.02-.82.3-1.09.61-.51.66-1.17.73-1.89.14-1.4.79-2.6,1.66-3.68.38-.48.25-1.12.65-1.63.35-.44.59-.98.99-1.39.65-.69.84-1.49.67-2.38-.12-.6.03-1.08.36-1.61.57-.91.91-1.96,1.24-2.99.26-.8.59-1.55,1.24-2.13.5-.45.97-.9,1.1-1.65.09-.5.53-.88.97-1.17,1.1-.72,1.72-1.7,1.67-3.05-.02-.7.38-1.15.93-1.52.45-.3.87-.65,1.25-1.04.45-.47.8-.98.85-1.7.09-1.34.96-2.22,2.02-2.94,1.11-.75,1.56-2.03,2.39-3,1.12-1.31,1.95-2.87,3.35-3.94.32-.24.56-.51.79-.83.33-.45.77-.84,1.31-1.08.24-.11.59-.24.46-.54-.5-1.16.47-1.61,1.09-2.07.95-.69,1.93-1.24,2.39-2.44.26-.68.82-1.09,1.71-1.09.85,0,1.59-.47,2.18-1.19.62-.76,1.26-1.52,2.13-2.04.5-.3.84-.8,1.07-1.31.53-1.17,1.5-1.73,2.67-1.9.9-.13,1.57-.39,2.13-1.19.83-1.18,2.19-1.67,3.48-2.2.51-.21,1.03-.34,1.23-.96.06-.2.28-.41.47-.48,1.31-.48,2.57-1.08,3.75-1.8.56-.34,1.13-.59,1.75-.77.2-.06.42-.14.62-.14.08,0,.15.01.22.04.2.08.38.12.55.12.49,0,.86-.31,1.22-.7.23-.25.48-.54.81-.59,1.47-.22,2.71-1.24,4.23-1.26.2,0,.36-.08.45-.26.6-1.24,1.83-1.2,2.91-1.49,1.14-.3,2.38-.22,3.39-.97.04-.03.11-.05.17-.05.05,0,.09,0,.12.03.3.18.57.26.83.26.62,0,1.14-.42,1.63-.81.28-.22.53-.37.78-.37.19,0,.37.08.58.27.13.12.27.16.41.16.19,0,.38-.08.55-.13,1.51-.49,2.95-1.2,4.58-1.24.33,0,.53-.38.82-.56,1.14-.68,2.38-.66,3.62-.72.34-.01.67.03.97-.21.09-.08.2-.12.33-.12.06,0,.12.01.19.04.72.27,1.45.33,2.18.33.61,0,1.22-.04,1.84-.05.38,0,.77-.1,1.01-.37.58-.66,1.29-.87,2-.87.42,0,.85.07,1.25.16.91.2,1.79.31,2.69.31.43,0,.87-.02,1.31-.08.24-.03.48-.04.72-.04.75,0,1.52.1,2.27.1.12,0,.24,0,.35,0,.16,0,.32-.01.48-.01.31,0,.62,0,.94,0,.74,0,1.48-.05,2.2-.41.18-.09.4-.13.62-.13m0-5c-.92,0-1.8.18-2.61.54-.05,0-.12,0-.21,0-.13,0-.26,0-.39,0-.18,0-.36,0-.54,0-.24,0-.48,0-.72.02-.04,0-.08,0-.11,0-.21,0-.51-.02-.81-.04-.43-.03-.92-.06-1.46-.06-.46,0-.88.02-1.29.07-.25.03-.5.04-.74.04-.5,0-1.02-.06-1.59-.19-.86-.19-1.61-.28-2.35-.28-1.58,0-3.05.44-4.29,1.28-.19,0-.37.01-.56.01-.28,0-.4-.02-.44-.02-.62-.23-1.27-.35-1.93-.35s-1.32.12-1.94.35c-1.4.05-3.48.16-5.56,1.41-1.22.2-2.27.57-3.19.9-.43-.09-.83-.12-1.17-.12-1.36,0-2.42.48-3.12.9-.08,0-.16,0-.25,0-1,0-1.98.28-2.81.8-.13.02-.3.05-.43.07-.44.07-1,.16-1.61.32-.12.03-.24.05-.36.08-.81.16-2.58.51-4.09,1.84-.77.21-1.41.48-1.92.7-.24.1-.58.24-.71.28-1.11.17-1.97.64-2.6,1.1-.63.06-1.12.21-1.38.29-1.1.32-2.07.74-3.01,1.31-.87.53-1.84.99-2.88,1.38-.95.35-1.8.97-2.45,1.75-1.31.54-3.06,1.34-4.48,2.94-2.51.53-4.49,2-5.65,4.2-.94.67-1.66,1.43-2.3,2.18-2.21.38-4.03,1.75-4.96,3.79-.11.08-.25.18-.37.26-.16.11-.31.22-.47.34l-.11.08c-1.67,1.14-2.52,2.42-2.9,3.62-.32.31-.62.65-.89,1.01-1.41,1.12-2.36,2.41-3.12,3.45-.3.41-.58.79-.83,1.09-.53.62-.91,1.21-1.22,1.7-.11.18-.26.41-.35.53-2.14,1.5-3.44,3.35-3.88,5.51-.02.02-.05.04-.08.05-2.26,1.54-2.93,3.5-3.07,4.91-1.3,1-1.98,2.12-2.33,3.09-1.46,1.4-2.09,3.02-2.45,4.14-.22.68-.46,1.45-.71,1.84-.83,1.32-1.22,2.7-1.17,4.12-.18.25-.32.47-.44.66-.05.07-.09.15-.14.22-.64.82-.94,1.64-1.11,2.24-1.2,1.68-1.91,3.4-2.16,5.23-.44.61-.75,1.31-.93,2.1-.45.57-.77,1.23-.96,1.96-.2.78-.23,1.58-.09,2.35-.71,1.08-1.02,2.35-.88,3.67-.55.98-.95,2.24-.92,3.84v.27c0,.06,0,.12.01.17-.04.11-.09.21-.13.32-.45,1.08-1.14,2.78-.94,4.91-.02.17-.03.33-.05.5-.04.41-.08.8-.13,1.07-.23,1.17-.13,2.18-.03,2.91-.28.63-.48,1.44-.42,2.41,0,.13-.04.38-.19.76-.94,2.46-1.07,5.1-.4,8.05-.3,1.02-.3,1.89-.3,2.29v.82c.01.51.02,1.01.01,1.52-.01,1.09.12,2.1.42,3.06-.38,1.4-.26,2.88.33,4.2-.09.76-.07,1.41-.05,1.87,0,.11.01.21.01.32-.19,1.52.12,3.01.86,4.28.09,1.05.31,2.06.66,3-.02,1.2.32,2.42,1,3.65-.05.91.13,1.83.53,2.66-.08,1.01.1,2.28.99,3.64-.2,2,.38,4.06,1.64,5.72.22,1.65.85,3.19,1.84,4.51.24,1,.59,1.99,1.06,2.94.11.22.24.73.36,1.17.33,1.25.79,2.96,2.02,4.6.39.61.81,1.08,1.25,1.46.16.79.41,1.42.59,1.84.03.07.06.14.09.21.59,1.57,1.5,2.67,2.17,3.47.17.2.39.47.5.62.34,1.17,1.1,2.17,2.13,2.82.21.13.69.91,1,1.42.34.56.73,1.19,1.22,1.84.38.51.77.93,1.08,1.26.09.1.2.22.29.32.34,1.12,1.11,2.55,2.86,3.71.28.18.55.38.82.57.01,0,.03.02.04.03.65,2.08,1.86,3.91,3.54,5.33.36.31.73.55,1.09.75.75,1.77,2.23,3.14,4.04,3.71.26.33.54.63.86.9.03.05.06.1.09.15l.03.05c1.02,1.78,2.62,3.02,4.75,3.69.52.81,1.2,1.48,2.01,1.95.78,1.07,1.71,1.65,2.16,1.94.77.49,1.57.84,2.42,1.06,1.09,1.58,2.74,2.55,4.62,2.72,1.5,1.41,3.23,2.49,5.17,3.22,1.13.43,2.15.51,2.83.57.02,0,.03,0,.05,0,.42.29,1.01.65,1.77.92.88.9,2.32,2.02,4.47,2.21.09.03.18.06.28.09.15.04.29.08.44.12.12.03.28.07.39.11.72.52,1.82,1.06,3.32,1.1,1.45.57,2.89,1.15,4.34,1.73.52.36,1.37.82,2.51.97.19.03.5.1.82.18.67.16,1.55.37,2.57.44.63.36,1.32.6,2.04.69,1.34,1.03,2.78,1.55,4.3,1.55.47,0,1.1-.06,1.81-.27,1.06.59,2.07.73,2.8.73.07,0,.13,0,.2,0,1.07.66,2.11.82,2.88.82s1.45-.15,2.13-.44c.15,0,.29.01.44.02l.4.02c.08,0,.19,0,.27,0,.2,0,.4-.01.59-.03.71.32,1.6.58,2.66.58.2,0,.4,0,.6-.03.26-.02.55-.05.77-.05.02,0,.04,0,.05,0,.92.49,1.95.75,2.97.75.85,0,1.67-.17,2.43-.5.41.08.82.13,1.24.13.22,0,.45-.01.67-.04.76.3,1.58.46,2.41.46s1.6-.15,2.35-.44c.37.08.75.11,1.13.11.86,0,2.04-.2,3.22-1.01.54.03,1.05.04,1.53.04.3,0,.61,0,.91.02.15,0,.3,0,.44,0,1.57,0,2.95-.32,4.07-.66.77.41,1.63.62,2.51.62,1.03,0,2.02-.3,2.89-.84.94-.07,1.82-.34,2.61-.8.23.03.46.04.69.04.3,0,.6-.02.9-.07,1.11-.17,2.22-.69,3.07-1.57.46-.1.95-.24,1.46-.45,0,0,.01,0,.02,0,.44-.08,1.13-.21,1.91-.54,1.43-.12,2.59-.58,3.39-.9.2-.08.47-.19.6-.23,1.27-.14,2.21-.68,2.79-1.1.57-.2,1.08-.43,1.55-.63.48-.21,1.21-.52,1.44-.53.05,0,.09,0,.14,0,1.12,0,2.23-.37,3.15-1.04.06-.01.16-.03.29-.06.51-.09,1.65-.29,2.81-1.08,1.59-.3,2.93-1.13,3.86-2.29,1.84-.27,3.38-1.21,4.41-2.64,1.26-.21,2.42-.85,3.33-1.84.26-.29.53-.58.8-.86,1.53-.45,2.77-1.47,3.51-2.84,1.47-.72,2.68-1.86,3.56-3.35,1.74-.5,2.81-1.64,3.42-2.46,1.4-.97,3.01-2.8,3.19-6.13.11-2.09-.84-4.02-2.5-5.12-.05-.06-.1-.11-.15-.17-.31-.34-.74-.81-1.32-1.28-1.28-1.03-2.78-1.57-4.44-1.61-.25,0-.5-.01-.74-.01-.77,0-1.75.05-2.81.32-.66-.25-1.37-.39-2.1-.39-1.45,0-2.84.54-3.94,1.51-.12-.03-.19-.05-.22-.07-.77-.35-1.6-.53-2.46-.53-.81,0-1.61.16-2.39.47-.54.22-.8.24-.89.24-.02,0-.04,0-.05,0-.08-.01-.15-.02-.23-.03-1.07-.96-2.43-1.49-3.87-1.49-.72,0-1.43.14-2.09.4-.06,0-.12,0-.19,0-.04,0-.1,0-.14,0h-.1c-.47,0-1.07-.08-1.75-.18-.36-.05-.72-.1-1.08-.15-.52-.06-1.1-.13-1.77-.13-.24,0-.48,0-.71.03-.71-.33-1.49-.5-2.29-.5-.6,0-1.19.1-1.74.29-.53-.24-1.44-.6-2.64-.6-.3,0-.6.02-.89.07-.85-.33-1.65-.52-2.34-.68-.51-.12-.99-.24-1.25-.36l-.32-.15c-.71-.33-1.68-.79-2.85-1.03-.21-.04-.42-.08-.63-.11-.84-.56-1.84-.88-2.92-.91-.91-.53-1.76-.77-2.34-.94-.1-.03-.19-.05-.29-.08-.72-.34-1.39-.47-1.89-.53-.69-.34-1.43-.58-2.2-.74-.95-.53-1.86-.81-2.57-1.02-.16-.05-.36-.11-.52-.16-.44-.47-1.07-.96-1.93-1.28-.99-1.05-2.23-1.73-3.59-1.99-.8-.73-1.66-1.33-2.6-1.82l-.21-.11c-.54-.28-1.28-.67-1.48-.89-.11-.12-.22-.25-.33-.37-.55-.62-1.3-1.47-2.36-2.21l-2.67-1.87c-1.24-.86-2.47-1.73-3.71-2.59-.41-1.5-1.29-2.74-2.51-3.52-.22-.14-.56-.45-.92-.77-.41-.37-.88-.79-1.43-1.21-.38-1.11-1.16-2.26-2.62-3.27-.19-.13-.39-.25-.57-.35-.4-.76-.93-1.45-1.55-2.04-.36-1.66-1.22-3.13-2.51-4.3-.61-1.19-1.38-2.13-2.14-2.87-.1-1.06-.49-2.26-1.42-3.48-.42-.55-.84-1.03-1.22-1.46-.07-.08-.14-.16-.21-.23.04-.97-.18-2.09-.9-3.31l-.03-.05c-.35-.6-.74-1.06-1.04-1.4-.03-.16-.05-.29-.07-.42-.09-.75-.26-1.38-.39-1.89-.04-.16-.09-.36-.12-.49.22-1.88-.39-3.8-1.62-5.19-.37-1.36-1-2.38-1.68-3.13.56-1.56.4-3.28-.36-4.7-.04-.58-.17-1.3-.51-2.05,0-.06,0-.11,0-.16.05-1.59-.45-2.76-1.04-3.58,0-.08,0-.17,0-.25v-.33c0-.12.01-.23.02-.35.02-.44.04-.99,0-1.63.19-.42.33-.87.41-1.34.2-1.1.07-2.24-.34-3.26,0-1.23-.25-2.38-.77-3.45.04-.42.07-.97.03-1.58.83-1.37,1.04-3,.58-4.53.54-1.43.6-2.92.22-4.26.41-1.2.47-2.26.49-2.79v-.07c.07-.41.18-1.09.11-1.92.72-1.35.92-2.64.88-3.73.52-.82,1.06-2.03,1.02-3.61-.02-.7-.02-1.4-.03-2.1.53-.93.76-1.89.85-2.71.9-1.05,1.34-2.14,1.52-3.13.85-1.12,1.42-2.51,1.63-4.06.03-.26.06-.51.08-.75,0,0,0,0,0-.01.22-.31.4-.61.56-.86.07-.12.17-.27.24-.37,1.01-.98,1.61-2.07,1.82-3.28.05-.09.09-.18.14-.27.03-.05.06-.09.09-.14.32-.49,1.02-1.56,1.27-3.01.3-.44.52-.84.68-1.14.05-.1.11-.2.16-.29l.12-.2c.04-.07.09-.16.14-.23.97-.52,2.29-1.6,2.78-3.7.3-.5.55-1,.77-1.48,1.15-.64,2.17-1.71,2.77-3.34.5-.53.87-1.09,1.14-1.63,1.25-.54,2.1-1.36,2.56-1.8.06-.05.11-.11.17-.16.88-.72,1.47-1.54,1.9-2.14.11-.16.27-.38.34-.45.7-.67,1.3-1.41,1.76-2.18.08-.05.18-.12.25-.17.49-.32,1.14-.74,1.8-1.35,1.88-1,3.14-2.25,3.99-3.5,1.24-.39,2.31-1.22,3-2.38.16-.07.36-.16.52-.23.78-.34,1.86-.82,2.91-1.65,1.01-.49,1.75-1.12,2.3-1.76,1.77-.38,3.36-1.29,4.6-2.64.51-.56,1.29-1.1,2.18-1.74l.15-.11c3.19-2.25,3.99-5.06,2.45-8.57-.5-1.89-1.88-3.35-3.62-3.93-1.36-1-2.71-1.22-3.62-1.22-.08,0-.21,0-.29,0h-.09c-.22,0-.55-.03-.89-.06-.52-.05-1.12-.1-1.79-.1-.1,0-.2,0-.3,0-.07,0-.15,0-.22,0-.76,0-1.37-.1-1.91-.33-.95-.39-1.93-.59-2.89-.59h0Z" fill="#fff" stroke-width="0"/>
          </g>
        </g>
        <rect id="uuid-39d9c86d-6f7b-4c08-a99e-454319646d28" data-name="Container" width="256" height="256" fill="none" stroke-width="0"/>
      </g>
    </g>
  </g>
</svg>